<?xml version="1.0" standalone="no"?>
<!DOCTYPE svg PUBLIC "-//W3C//DTD SVG 20010904//EN"
 "http://www.w3.org/TR/2001/REC-SVG-20010904/DTD/svg10.dtd">
<svg version="1.0" xmlns="http://www.w3.org/2000/svg"
 width="512.000000pt" height="512.000000pt" viewBox="0 0 512.000000 512.000000"
 preserveAspectRatio="xMidYMid meet">
<metadata>
Created by potrace 1.11, written by Peter Selinger 2001-2013
</metadata>
<g transform="translate(0.000000,512.000000) scale(0.100000,-0.100000)"
fill="#000000" stroke="none">
<path d="M1810 4309 c-46 -7 -170 -28 -205 -35 -150 -30 -408 -139 -555 -234
-250 -163 -476 -410 -608 -665 -44 -85 -92 -195 -85 -195 3 0 1 -6 -5 -12 -5
-7 -15 -31 -21 -54 -9 -34 -21 -48 -82 -89 -102 -70 -172 -144 -211 -222 -29
-60 -33 -76 -32 -148 1 -69 5 -88 32 -140 35 -68 82 -122 162 -184 62 -49 65
-53 74 -101 6 -32 10 -53 20 -97 78 -344 312 -708 606 -943 118 -94 196 -142
335 -210 265 -128 495 -179 795 -174 91 1 174 4 185 7 11 2 43 8 70 11 142 20
314 76 473 152 200 97 326 187 488 348 149 149 247 288 337 477 54 113 56 115
122 124 22 3 63 10 90 15 28 5 66 11 85 14 19 3 88 17 153 31 l118 25 43 -43
c83 -86 188 -127 306 -122 207 10 366 171 375 380 l4 70 48 40 c159 131 216
264 177 413 -76 289 -617 533 -1459 656 -119 17 -112 14 -143 69 -92 161 -312
398 -482 519 -79 55 -306 179 -385 210 -34 12 -149 50 -165 53 -8 2 -35 8 -60
15 -25 7 -52 13 -60 15 -20 4 -87 14 -130 21 -59 9 -352 11 -410 3z m1930
-1079 c30 -5 71 -12 90 -15 235 -37 638 -154 789 -229 144 -72 210 -116 268
-179 104 -113 97 -206 -23 -316 -43 -41 -47 -42 -57 -25 -16 31 -95 103 -135
123 -129 66 -283 61 -398 -12 -128 -80 -198 -219 -187 -372 2 -33 1 -57 -2
-53 -4 3 -21 2 -38 -3 -18 -5 -45 -12 -62 -15 -25 -4 -156 -29 -266 -50 l-26
-5 23 99 c30 136 37 196 39 347 3 260 -37 478 -130 708 -8 19 -17 19 115 -3z
m-3484 -441 c-4 -23 -9 -96 -12 -163 -3 -67 -7 -122 -8 -123 -1 -1 -16 19 -34
46 -64 93 -59 157 19 246 17 19 33 35 36 35 3 0 3 -19 -1 -41z"/>
</g>
</svg>
